<svg xmlns="http://www.w3.org/2000/svg" width="50" height="50" fill="none" xmlns:v="https://vecta.io/nano"><path d="M0 8a8 8 0 0 1 8-8h34a8 8 0 0 1 8 8v34a8 8 0 0 1-8 8H8a8 8 0 0 1-8-8V8z" fill="#f6f7f8"/><g fill="#ff5678"><path fill-rule="evenodd" d="M17.4 10.65a5.84 5.84 0 0 0-5.85 5.85v17a5.84 5.84 0 0 0 5.85 5.85h16.2a5.84 5.84 0 0 0 5.85-5.85v-17a5.84 5.84 0 0 0-5.85-5.85H17.4zm-7.15 5.85a7.14 7.14 0 0 1 7.15-7.15h16.2a7.14 7.14 0 0 1 7.15 7.15v17a7.14 7.14 0 0 1-7.15 7.15H17.4a7.14 7.14 0 0 1-7.15-7.15v-17z"/><path d="M22 26.2c1.5 0 2.5-1 2.5-2.4v-2.3c0-1.4-1-2.4-2.5-2.4s-2.5 1-2.5 2.4v2.3c0 1.4 1.1 2.4 2.5 2.4zm.9 5.3l7.5-10.7-1.5-1.1-7.5 10.7 1.5 1.1zm-.9-6.9c-.4 0-.8-.3-.8-.8v-2.2c-.1-1 1.6-1 1.5 0v2.2c.1.4-.2.8-.7.8zm7.7 7.6c1.5 0 2.6-1 2.6-2.4v-2.3c0-1.4-1.1-2.4-2.6-2.4s-2.5 1-2.5 2.4v2.3c0 1.4 1.1 2.4 2.5 2.4zm.1-1.6c-.5 0-.8-.4-.8-.8v-2.2c0-.4.3-.8.8-.8s.8.3.8.8v2.2c-.1.5-.4.8-.8.8z"/></g></svg>