<svg xmlns="http://www.w3.org/2000/svg" width="105" height="105" fill="none" xmlns:v="https://vecta.io/nano"><path opacity=".2" d="M52.5 105c28.995 0 52.5-23.505 52.5-52.5S81.495 0 52.5 0 0 23.505 0 52.5 23.505 105 52.5 105z" fill="url(#A)"/><path d="M52.75 79C67.248 79 79 67.248 79 52.75S67.248 26.5 52.75 26.5 26.5 38.253 26.5 52.75 38.253 79 52.75 79z" fill="#0cc" stroke="#173753" stroke-width="3.402" stroke-linejoin="round"/><path d="M52.875 71.25A18.38 18.38 0 0 0 71.25 52.875 18.38 18.38 0 0 0 52.875 34.5 18.38 18.38 0 0 0 34.5 52.875 18.38 18.38 0 0 0 52.875 71.25z" fill="#e5f9f9"/><path d="M47.1 53.925c2 0 3.475-1.325 3.475-3.3v-3.15c0-1.975-1.475-3.3-3.475-3.3s-3.475 1.325-3.475 3.3v3.15c0 1.975 1.475 3.3 3.475 3.3zm.95 7.425l10.5-14.925-1.95-1.4L46.125 59.95l1.925 1.4zm-.95-9.475c-.725 0-1.25-.575-1.25-1.3v-3.05c0-.725.525-1.275 1.25-1.275s1.275.575 1.275 1.275v3.05c0 .725-.55 1.3-1.275 1.3zm10.45 10.45c2 0 3.475-1.325 3.475-3.3v-3.15c0-1.975-1.475-3.3-3.475-3.3s-3.45 1.325-3.45 3.3v3.15c0 1.975 1.45 3.3 3.45 3.3zm0-2.05c-.725 0-1.225-.575-1.225-1.3v-3.05c0-.725.5-1.275 1.225-1.275s1.275.575 1.275 1.275v3.05c0 .725-.55 1.3-1.275 1.3z" fill="#173753"/><defs><linearGradient id="A" x1="42.731" y1="6.386" x2="77.71" y2="105" gradientUnits="userSpaceOnUse"><stop stop-color="#00c9c9" stop-opacity=".147"/><stop offset="1" stop-color="#00c9c9" stop-opacity=".699"/></linearGradient></defs></svg>