<svg width="105" height="105" fill="none" xmlns="http://www.w3.org/2000/svg"><path opacity=".2" d="M52.5 105c28.995 0 52.5-23.505 52.5-52.5S81.495 0 52.5 0 0 23.505 0 52.5 23.505 105 52.5 105z" fill="url(#a)"/><path fill-rule="evenodd" clip-rule="evenodd" d="m41.1 25.43 5.293-2.032 3.387 8.822-5.293 2.032L41.1 25.43z" fill="#0CC" stroke="#173753" stroke-width="2.722" stroke-linecap="round" stroke-linejoin="round"/><path fill-rule="evenodd" clip-rule="evenodd" d="M53.278 31.531c8.142 0 14.742 6.6 14.742 14.742 0 2.014-.404 3.933-1.135 5.682L64.401 73.76a9.073 9.073 0 0 1-9.014 8.045h-5.352a9.073 9.073 0 0 1-9.014-8.045l-2.485-21.817h1.13a14.69 14.69 0 0 1-1.13-5.67c0-8.142 6.6-14.742 14.742-14.742z" fill="#E5F9F9" stroke="#0F2336" stroke-width="2.722" stroke-linecap="round" stroke-linejoin="round"/><path fill-rule="evenodd" clip-rule="evenodd" d="M55.557 64.543c3.777 2.516 7.09 3.933 9.941 4.252l-.469 4.684a9.88 9.88 0 0 1-9.83 8.896h-5.13a9.88 9.88 0 0 1-9.83-8.896l-.99-9.882c5.048-3.25 10.484-2.935 16.308.946z" fill="#00C9C9"/><path clip-rule="evenodd" d="M53.278 31.531c8.142 0 14.742 6.6 14.742 14.742 0 2.014-.404 3.933-1.135 5.682L64.401 73.76a9.073 9.073 0 0 1-9.014 8.045h-5.352a9.073 9.073 0 0 1-9.014-8.045l-2.485-21.817h1.13a14.69 14.69 0 0 1-1.13-5.67c0-8.142 6.6-14.742 14.742-14.742v0z" stroke="#173753" stroke-width="2.722" stroke-linecap="round" stroke-linejoin="round"/><path d="M68.587 45.139H36.835A2.835 2.835 0 0 0 34 47.974v1.134a2.835 2.835 0 0 0 2.835 2.835h31.752a2.835 2.835 0 0 0 2.835-2.835v-1.134a2.835 2.835 0 0 0-2.835-2.835z" fill="#E5F9F9" stroke="#173753" stroke-width="2.722" stroke-linecap="round" stroke-linejoin="round"/><defs><linearGradient id="a" x1="42.731" y1="6.386" x2="77.71" y2="105" gradientUnits="userSpaceOnUse"><stop stop-color="#00C9C9" stop-opacity=".147"/><stop offset="1" stop-color="#00C9C9" stop-opacity=".699"/></linearGradient></defs></svg>