<svg xmlns="http://www.w3.org/2000/svg" width="130" height="47" fill="none" xmlns:v="https://vecta.io/nano"><path d="M41.879 20.138v4.277h6.34v17.078h4.435V24.415h6.34v-4.277H41.879zm36.376 1.24c-1.288-.888-3.215-1.36-5.593-1.36l-6.572.119-.838.017v21.337h4.464v-7.739h2.85a10.51 10.51 0 0 0 4.891-1.086 6.94 6.94 0 0 0 3.278-6.034c0-2.388-.832-4.157-2.48-5.254h0zm-8.55 3.037l2.731-.063c3.101 0 3.733.95 3.733 2.372a2.67 2.67 0 0 1-1.026 2.132c-.914.44-1.928.637-2.942.568h-2.485l-.012-5.01h.001zm20.505.449c-2.194-.017-4.296.883-5.798 2.48a8.32 8.32 0 0 0-2.371 5.966c-.031 2.236.824 4.394 2.378 6.006a7.89 7.89 0 0 0 5.792 2.474c1.526.019 3.022-.416 4.299-1.251v.688h4.406V25.228l-4.338.904c-1.296-.849-2.816-1.291-4.367-1.268h0zm2.976 5.328c.794.843 1.226 1.961 1.203 3.117.026 1.165-.407 2.293-1.203 3.145-.721.785-1.738 1.232-2.805 1.232s-2.084-.447-2.804-1.232a4.45 4.45 0 0 1-1.198-3.151c-.025-1.155.405-2.273 1.198-3.116.71-.8 1.73-1.257 2.802-1.257s2.091.457 2.802 1.257l.006.005h0zm16.818 1.405l-1.711-.654c-1.539-.569-1.539-.74-1.539-.972 0-.365 0-1.036 1.962-1.036 1.408.003 2.795.34 4.047.983l1.22.569v-4.589l-.57-.211a13.71 13.71 0 0 0-4.783-.881c-3.945 0-6.305 1.865-6.305 4.987s2.28 4.242 4.036 4.879l1.836.654c1.779.631 1.95.807 1.95 1.137 0 .467 0 1.245-2.23 1.245a8.92 8.92 0 0 1-4.72-1.365l-1.288-.74v4.715l.462.239a12.2 12.2 0 0 0 5.518 1.251c4.19 0 6.692-1.956 6.692-5.226.029-2.998-2.058-4.056-4.577-4.987v-.001zm14.84 0l-1.71-.654c-1.54-.569-1.54-.74-1.54-.972 0-.365 0-1.036 1.961-1.036 1.408.003 2.795.34 4.047.983l1.22.569v-4.589l-.57-.211a13.71 13.71 0 0 0-4.783-.881c-3.945 0-6.305 1.865-6.305 4.987s2.281 4.242 4.036 4.879l1.836.654c1.779.631 1.95.807 1.95 1.137 0 .467 0 1.245-2.229 1.245-1.671-.004-3.307-.477-4.72-1.365l-1.289-.74v4.715l.462.239a12.2 12.2 0 0 0 5.518 1.251c4.19 0 6.693-1.956 6.693-5.226.028-2.998-2.03-4.056-4.578-4.987l.001-.001z" fill="#122f53"/><path d="M58.702 41.538c1.281 0 2.32-1.036 2.32-2.314s-1.039-2.314-2.32-2.314-2.32 1.036-2.32 2.314 1.039 2.314 2.32 2.314z" fill="url(#A)"/><path d="M14.632 45.325c4.323 0 8.292-2.607 8.849-5.811l.899-7.952c-1.687.847-2.232 2.722-5.789 1.265 0 0-3.517-1.914-4.498-2.211-4.866-1.479-9.472 2.483-9.515 2.544l1.278 6.261c.562 3.238 4.502 5.903 8.776 5.903z" fill="url(#B)"/><path d="M26.509 18.334a12.17 12.17 0 0 0-9.054-10.877l.276-2.553 2.196-1.117.087-.044 1.559-.782a1.37 1.37 0 0 0 .684-.79 1.36 1.36 0 0 0-.077-1.041l-.192-.378-.071-.122c-.377-.589-1.14-.798-1.765-.483l-.471.238-.034.017-4.446 2.202c-.258.117-.436.363-.467.645l-.412 3.801a12.18 12.18 0 0 0-12.11 11.285C.927 18.582 0 19.703 0 21.006v1.28c.002 1.455 1.152 2.65 2.609 2.714l1.8 13.904c.362 4.352 3.806 7.636 8.006 7.636h4.127c4.201 0 7.643-3.281 8.001-7.586L26.35 24.98a2.72 2.72 0 0 0 2.371-2.689v-1.279c.002-1.306-.926-2.43-2.211-2.678zM14.36 9.09a10.15 10.15 0 0 1 10.089 9.191h-2.001c-.469-4.049-3.904-7.197-8.086-7.197s-7.625 3.148-8.091 7.198h-2c.478-5.144 4.81-9.192 10.089-9.192zm6.137 9.191h-2.215c-.426-1.818-2.05-3.104-3.922-3.104s-3.496 1.286-3.922 3.104H8.224c.46-3.026 3.068-5.262 6.136-5.262s5.676 2.237 6.137 5.262zM5.687 32.436l-.962-7.423h7.615l-.493 4.674c-2.894-.094-4.947 1.441-6.16 2.749zm16.767 6.295c-.27 3.257-2.814 5.712-5.914 5.712h-4.125c-3.101 0-5.643-2.455-5.919-5.762l-.502-3.879c.459-.759 2.321-3.434 5.672-3.401l-.619 5.879c-.081.769.461 1.462 1.212 1.545l.421.047a1.27 1.27 0 0 0 .14.009c.71-.006 1.3-.548 1.366-1.253l.578-5.489c.109.049.216.093.327.148 3.863 1.886 6.545 1.319 8.133.492l-.77 5.953zm1.068-8.251c-.52.54-2.928 2.596-7.68.276a12.8 12.8 0 0 0-.89-.389l.564-5.354h8.714l-.707 5.468zm3.123-8.195c0 .174-.068.341-.191.464a.66.66 0 0 1-.463.194H2.733c-.362 0-.656-.293-.657-.655v-1.28c.001-.361.295-.654.657-.654H25.99c.362 0 .655.293.656.654l-.002 1.277zm-9.882 18.649c-.632.137-1.033.757-.896 1.387a1.17 1.17 0 1 0 .896-1.387h0zm.842-2.602a.55.55 0 0 0-.18.997.55.55 0 0 0 .833-.577.55.55 0 0 0-.653-.419v-.001zm-7.594 3.344a.41.41 0 0 0-.313.487.41.41 0 0 0 .487.312.41.41 0 0 0 .314-.486c-.024-.105-.087-.198-.179-.257s-.202-.078-.309-.056h0zm4.54-2.613c-.307.066-.544.311-.599.619s.08.621.345.789a.78.78 0 0 0 .863-.015c.257-.179.382-.495.316-.801a.78.78 0 0 0-.924-.593zm-4.615 0c-.419.091-.685.504-.593.922s.504.683.923.592.685-.503.593-.922c-.044-.2-.165-.376-.338-.487a.78.78 0 0 0-.585-.104zm7.244-2.035a1.13 1.13 0 0 0 .372-2.048 1.13 1.13 0 0 0-1.255.023c-.375.259-.556.719-.459 1.164a1.13 1.13 0 0 0 1.343.862h-.001zm-5.115 4.463c-.363.227-.474.705-.247 1.067a.78.78 0 0 0 1.069.247.77.77 0 0 0 .25-1.065.78.78 0 0 0-1.072-.248v-.001zm7.808-3.955a.78.78 0 0 0 1.07.245c.364-.226.474-.705.247-1.068a.78.78 0 0 0-1.07-.245c-.175.109-.299.282-.346.483a.77.77 0 0 0 .099.585zm-.102 2.207a.77.77 0 0 0-.247 1.067.78.78 0 0 0 1.07.246c.364-.227.474-.705.247-1.067a.78.78 0 0 0-1.07-.246h.001zM9.498 36.538a1.11 1.11 0 0 0-1.527-.351c-.519.325-.677 1.006-.352 1.523a1.11 1.11 0 0 0 1.527.352c.25-.156.428-.404.493-.689a1.11 1.11 0 0 0-.14-.836v.001z" fill="#122f53"/><defs><linearGradient id="A" x1="56.388" y1="39.223" x2="61.022" y2="39.223" gradientUnits="userSpaceOnUse"><stop stop-color="#59c4c9"/><stop offset=".37" stop-color="#41b1be"/><stop offset="1" stop-color="#0f8ba8"/></linearGradient><linearGradient id="B" x1="4.577" y1="37.806" x2="24.378" y2="37.806" gradientUnits="userSpaceOnUse"><stop stop-color="#59c4c9"/><stop offset=".37" stop-color="#41b1be"/><stop offset="1" stop-color="#0f8ba8"/></linearGradient></defs></svg>