<svg xmlns="http://www.w3.org/2000/svg" width="793" height="564" fill="none" xmlns:v="https://vecta.io/nano"><path d="M423.52 671.956c90.339-1.302 177.879-43.522 248.915-106.363 51.346-45.475 96.323-104.083 114.371-174.739 18.145-70.655-4.729-130.891-53.566-179.731-45.17-45.042-110.704-48.623-161.085-86.067-36.676-27.242-61.577-85.09-104.334-96.269-39.186-10.311-75.379 9.334-107.422 36.901l-89.085 77.71c-25.19 23.009-53.566 41.351-83.872 54.158-55.304 23.443-120.452 31.366-158.865 81.834C-.475 317.703-6.459 373.815 6.474 422.003S49.231 510.784 84.17 542.15c91.111 81.943 223.145 131.543 339.35 129.806z" fill="#e3e6e8"/><path d="M662.5 431.735c-28.2 31.002-73.8 2.752-99.2-28.974-4.5-5.505-7.6-12.894-8.9-21.151-5.8-39.839 37.6-49.545 38.9-85.328.6-15.646-7.5-28.539-13.5-41.578-13.6-29.553-17.5-67.074-14.6-102.422s12-69.103 22.7-101.264c8.7-26.221 24.3-56.064 43.9-49.69 12.6 4.056 20.7 22.31 24.4 40.274 5 24.773 4.3 51.284.9 76.636-1.5 11.155-3.5 22.889-1.4 33.899 5.3 28.25 32.6 34.624 42.5 59.976 9.9 25.497-1.9 57.513-13.1 82.431-9.6 21.44-15.3 34.768-9.1 52.877 1.7 4.78 4 9.127 6.9 12.459 6.1 7.533 17.3 30.422-20.4 71.855z" fill="#f3af47"/><g fill="#7c4a0f"><path d="M625.1 74.342L619 572.548l24-1.304-17.9-496.902z"/><path d="M626.6 417.682l-49.6-76.78 53.9 70.261c.9 1.014 1.3 2.753 1.1 4.346s-1 2.898-2.1 3.477-2.3.145-3.1-1.014l-.2-.29zm-4.5-220.201L602 140.982l24.1 53.312c.8 1.014 1.1 2.608.7 3.912-.4 1.448-1.4 2.317-2.4 2.173-1.1-.145-1.9-1.159-2.2-2.753l-.1-.145zm5.5 117.779L678 211.968l-45.5 108.073c-.9 2.028-2.7 2.752-4.1 1.448s-1.8-3.911-1-5.939l.2-.29z"/></g><path d="M168.5 521.409c-19.1 21.006-50 1.883-67.1-19.558-3-3.766-5.1-8.837-6-14.342-3.9-26.945 25.4-33.609 26.3-57.658.4-10.575-5.1-19.267-9.2-28.104-9.2-20.137-11.8-45.489-9.9-69.538s8.1-46.792 15.4-68.523c5.9-17.819 16.5-37.955 29.7-33.609 8.5 2.752 14 15.066 16.5 27.235 3.4 16.66 2.9 34.624.6 51.863-1 7.533-2.4 15.356-1 22.89 3.6 19.122 22.1 23.468 28.8 40.708s-1.3 38.97-8.8 55.774c-6.4 14.487-10.4 23.469-6.2 35.928 1.2 3.187 2.8 6.085 4.7 8.547 4.1 4.926 11.7 20.427-13.8 48.387z" fill="#f8cd99"/><g fill="#7c6242"><path d="M141.8 273.972c0 6.374-6.1 313.207-6.1 313.207l17.6 2.173-11.5-315.38z"/><path d="M146.1 459.549l35.8-54.905-38.9 50.27c-.9 1.159-.9 3.187-.1 4.49s2.1 1.449 3.1.29l.1-.145zm-6.9-95.903l-14.6-41.867 17.4 39.549c.4 1.159.1 2.463-.6 3.187s-1.7.435-2.2-.579c.1 0 0-.29 0-.29z"/></g><path d="M144.5 450.857l35.2-76.491-35.2 76.491z" fill="#9c4f5f"/></svg>